<svg id="Layer_1" data-name="Layer 1" xmlns="http://www.w3.org/2000/svg" viewBox="0 0 353.97 33"><defs><style>.cls-1,.cls-3{fill:#4ac8ed;}.cls-2{fill:#fff;}.cls-3{fill-rule:evenodd;}</style></defs><title>Zaimovik_logo</title><path class="cls-1" d="M24.87,32.39V26.25H9L24.3,5.54V.65H.69v6.1H15.31L0,27.46v4.93Zm8.69,0,2.34-6H50.43l2.29,6h7L46.84.65H39.48l-13,31.74Zm8.87-23A8.44,8.44,0,0,0,43.16,7a13,13,0,0,0,.69,2.47L48.31,20.8H38.06ZM63.31.65V32.39H70.1V.65Zm41.6,0L94.1,17.13,83.21.65H76.89V32.39h6.83V12.8l8.35,12.76h4l8.39-12.71V32.39h6.79V.65Zm11.33,15.87c0,8.61,5.62,16.48,16.87,16.48S150,25.13,150,16.52,144.36,0,133.11,0s-16.87,7.91-16.87,16.52Zm26.77,0c0,5.58-3.33,10.21-9.9,10.21s-9.9-4.63-9.9-10.21,3.29-10.21,9.9-10.21,9.9,4.63,9.9,10.21Zm26.73,15.87L182.15.65H174.8l-8.52,23.74L157.81.65h-7.35l12.33,31.74ZM185.83.65V32.39h6.79V.65ZM206.2,32.39v-13h5.15l8.65,13h7.52l-10.85-16.3L227,.65h-7.61l-8,12.58H206.2V.65h-6.79V32.39Z"/><path class="cls-2" d="M246.85.65V32.39h6.83V.65Zm20.41,31.74V16c0-1.43,0-3-.13-4.32l14.79,20.72h6.4V.65h-6.83V17c0,1.47,0,3.07.17,4.37L266.87.65h-6.4V32.39ZM295.11.65V32.39h6.79V20.28h14.27V14.14H301.9V6.75h15.61V.65Zm25.13,15.87c0,8.61,5.62,16.48,16.87,16.48S354,25.13,354,16.52,348.35,0,337.11,0s-16.87,7.91-16.87,16.52Zm26.73,0c0,5.58-3.29,10.21-9.86,10.21s-9.95-4.63-9.95-10.21,3.33-10.21,9.95-10.21S347,10.94,347,16.52Z"/><path class="cls-3" d="M234.4,22.7A5.73,5.73,0,1,1,240.15,17a5.74,5.74,0,0,1-5.75,5.75Z"/></svg>